<?xml version="1.0" encoding="utf-8"?>
<!-- Generator: Adobe Illustrator 21.1.0, SVG Export Plug-In . SVG Version: 6.00 Build 0)  -->
<svg version="1.1" id="Layer_1" xmlns="http://www.w3.org/2000/svg" xmlns:xlink="http://www.w3.org/1999/xlink" x="0px" y="0px"
	 viewBox="0 0 162.3 25.8" style="enable-background:new 0 0 162.3 25.8;" xml:space="preserve">
<style type="text/css">
	.st0{fill:#FFFFFF;}
</style>
<g>
	<polygon class="st0" points="11.6,1.4 0,25.5 18.5,25.1 	"/>
	<path class="st0" d="M42.1,1.3c0,0-2.8,16.5-2.8,16.5s-0.5,7.7,7.5,7.8c8,0,9.8-4.2,10.6-8.7c0.9-4.5,2.1-16,2.1-16l-5.4,0.5
		c0,0-1.4,9.9-1.8,10.5c-0.5,0.6-0.9,3.5-2.8,3.3c-2-0.2-1.8-3.6-1-8c0.8-4.4,0.9-6,0.9-6L42.1,1.3z"/>
	<path class="st0" d="M62.2,1.4l-4.3,23.1H72c0,0,0.8-0.6,0.9-2.1c0.2-1.5,0-7,0-7l-7.5-0.1l3.5-14.5L62.2,1.4z"/>
	<path class="st0" d="M71.3,1.1l-2.1,9.7h7c0,0,0,1.6-0.2,2.6c-0.3,1-2.1,11.7-2.1,11.7h6.9c0,0,0.9-3.4,1.2-5
		c0.2-1.6,1.6-9.8,1.6-9.8s7.2-0.2,7-0.1C90.3,10.2,92,0.8,92,0.8L71.3,1.1z"/>
	<path class="st0" d="M109.5,1.4c-1,0.1-13.9-1.8-16,1.8c-2.1,3.6-0.9,6.5-0.9,6.5s3.7,7.3-5.5,6.8c-2.4-0.1-2.1,0-2.1,0l-0.9,8.6
		c0,0,9.3,1.2,12.8,0s5.9-5,4-9.3s-1.3-7.8,3.5-8.1c4.8-0.3,3.2-0.1,3.2-0.1L109.5,1.4z"/>
	<path class="st0" d="M109.5,1.5c-1,0.1-13.9-1.8-16,1.8c-2.1,3.6-0.9,6.5-0.9,6.5s3.7,7.3-5.5,6.8c-2.4-0.1-2.1,0-2.1,0l-0.9,8.6
		c0,0,9.3,1.2,12.8,0s5.9-5,4-9.3s-1.3-7.8,3.5-8.1c4.8-0.3,3.2-0.1,3.2-0.1L109.5,1.5z"/>
	<path class="st0" d="M111.8,0.8l-4.6,23.6l12-14.4c0,0,4.3,15.9,4.2,15S130.6,0,130.6,0L111.8,0.8z"/>
	<polygon class="st0" points="132.3,0.8 125.3,25.1 132.6,24.8 139.4,1.2 	"/>
	<path class="st0" d="M141.4,1l8.3,10.1l12.6-9.9c0,0-2,14.1-2.3,16.9s-1,7.1-1,7.1s-16.5,0-18.4,0c-1.9,0-5.7,0-5.7,0L141.4,1z"/>
	<path class="st0" d="M24.8,1.3c0,0-5.1,22.3-5.2,23.8c0,0,17,1.7,19.1-7.3C42.4,2.4,24.8,1.3,24.8,1.3z M31.8,13.6
		c-0.6,2.4-4.2,4-4.2,4L29.3,8C29.3,8,32.4,11.2,31.8,13.6z"/>
</g>
</svg>
